<?xml version="1.0" standalone="no"?>
<!DOCTYPE svg PUBLIC "-//W3C//DTD SVG 1.1//EN" "http://www.w3.org/Graphics/SVG/1.1/DTD/svg11.dtd" >
<svg xmlns="http://www.w3.org/2000/svg">
<metadata>Generated by IcoMoon</metadata>
<defs>
<font id="icomoon" horiz-adv-x="1024">
<font-face units-per-em="1024" ascent="960" descent="-64" />
<missing-glyph horiz-adv-x="1024" />
<glyph unicode="&#x20;" horiz-adv-x="512" d="" />
<glyph unicode="&#xe900;" glyph-name="browser2" horiz-adv-x="1195" d="M923.153 960h-651.638c-61.7-0.074-120.852-24.617-164.481-68.246s-68.172-102.781-68.246-164.482v-558.547c0.074-61.7 24.617-120.849 68.246-164.48 43.629-43.627 102.781-68.173 164.481-68.245h651.638c61.7 0.073 120.849 24.619 164.48 68.245 43.627 43.631 68.173 102.78 68.245 164.48v558.547c-0.073 61.701-24.619 120.853-68.245 164.482-43.631 43.629-102.78 68.172-164.48 68.246zM271.515 866.909h651.638c37.030 0 72.55-14.711 98.735-40.899 26.189-26.187 40.9-61.704 40.9-98.738v-46.545h-930.909v46.545c0 37.034 14.711 72.551 40.899 98.738s61.704 40.899 98.737 40.899zM923.153 29.090h-651.638c-37.034 0-72.551 14.711-98.737 40.9-26.187 26.185-40.899 61.705-40.899 98.735v418.911h930.909v-418.911c0-37.030-14.711-72.55-40.9-98.735-26.185-26.189-61.705-40.9-98.735-40.9zM923.153 401.455c0-12.343-4.907-24.183-13.636-32.913-8.725-8.73-20.565-13.632-32.909-13.632h-558.548c-12.344 0-24.183 4.902-32.913 13.632s-13.633 20.57-13.633 32.913c0 12.343 4.904 24.183 13.633 32.913s20.568 13.632 32.913 13.632h558.548c12.343 0 24.183-4.902 32.909-13.632 8.73-8.73 13.636-20.57 13.636-32.913zM736.969 215.275c0-12.348-4.902-24.188-13.632-32.913-8.73-8.73-20.57-13.636-32.913-13.636h-372.363c-12.344 0-24.183 4.907-32.913 13.636-8.729 8.725-13.633 20.565-13.633 32.913 0 12.343 4.904 24.183 13.633 32.909 8.729 8.73 20.568 13.636 32.913 13.636h372.363c12.343 0 24.183-4.907 32.913-13.636 8.73-8.725 13.632-20.565 13.632-32.909zM178.424 773.818c0 9.206 2.73 18.205 7.844 25.859s12.384 13.62 20.889 17.143c8.505 3.523 17.864 4.445 26.893 2.649s17.323-6.229 23.832-12.739c6.51-6.509 10.943-14.803 12.739-23.832s0.874-18.388-2.649-26.893c-3.523-8.505-9.489-15.774-17.143-20.889s-16.653-7.845-25.859-7.845c-12.344 0-24.183 4.904-32.912 13.633s-13.633 20.568-13.633 32.913zM318.060 773.818c0 9.206 2.73 18.205 7.844 25.859s12.384 13.62 20.889 17.143c8.505 3.523 17.864 4.445 26.893 2.649s17.322-6.229 23.832-12.739c6.51-6.509 10.943-14.803 12.739-23.832s0.874-18.388-2.649-26.893c-3.523-8.505-9.489-15.774-17.143-20.889s-16.654-7.845-25.859-7.845c-12.345 0-24.183 4.904-32.913 13.633s-13.633 20.568-13.633 32.913zM457.698 773.818c0 9.206 2.731 18.205 7.842 25.859 5.116 7.654 12.386 13.62 20.89 17.143s17.865 4.445 26.893 2.649c9.028-1.796 17.323-6.229 23.834-12.739 6.507-6.509 10.94-14.803 12.736-23.832s0.875-18.388-2.65-26.893c-3.52-8.505-9.485-15.774-17.139-20.889s-16.657-7.845-25.86-7.845c-12.343 0-24.183 4.904-32.913 13.633s-13.632 20.568-13.632 32.913z" />
<glyph unicode="&#xe901;" glyph-name="browser" horiz-adv-x="1195" d="M923.153 960h-651.637c-61.7-0.074-120.852-24.617-164.481-68.246s-68.172-102.781-68.246-164.482v-558.547c0.074-61.7 24.617-120.849 68.246-164.48 43.629-43.627 102.781-68.173 164.481-68.245h651.637c61.7 0.073 120.853 24.619 164.48 68.245 43.631 43.631 68.173 102.78 68.245 164.48v558.547c-0.073 61.701-24.614 120.853-68.245 164.482-43.627 43.629-102.78 68.172-164.48 68.246zM271.516 866.909h651.637c37.035 0 72.55-14.711 98.739-40.899 26.185-26.187 40.896-61.704 40.896-98.738v-46.545h-930.908v46.545c0 37.034 14.711 72.551 40.899 98.738s61.704 40.899 98.737 40.899zM923.153 29.090h-651.637c-37.034 0-72.551 14.711-98.737 40.9-26.187 26.185-40.899 61.705-40.899 98.735v418.911h930.908v-418.911c0-37.030-14.711-72.55-40.896-98.735-26.189-26.189-61.705-40.9-98.739-40.9zM923.153 401.455c0-12.343-4.902-24.183-13.632-32.913s-20.57-13.632-32.913-13.632h-558.546c-12.344 0-24.183 4.902-32.913 13.632s-13.633 20.57-13.633 32.913c0 12.343 4.904 24.183 13.633 32.913s20.568 13.632 32.913 13.632h558.546c12.343 0 24.183-4.902 32.913-13.632s13.632-20.57 13.632-32.913zM736.973 215.275c0-12.348-4.907-24.188-13.636-32.913-8.725-8.73-20.565-13.636-32.913-13.636h-372.362c-12.344 0-24.183 4.907-32.913 13.636-8.729 8.725-13.633 20.565-13.633 32.913 0 12.343 4.904 24.183 13.633 32.909 8.729 8.73 20.568 13.636 32.913 13.636h372.362c12.348 0 24.188-4.907 32.913-13.636 8.73-8.725 13.636-20.565 13.636-32.909zM178.426 773.818c0 9.206 2.73 18.205 7.844 25.859s12.384 13.62 20.889 17.143c8.505 3.523 17.864 4.445 26.893 2.649s17.323-6.229 23.832-12.739c6.51-6.509 10.943-14.803 12.739-23.832s0.874-18.388-2.649-26.893c-3.523-8.505-9.489-15.774-17.143-20.889s-16.653-7.845-25.859-7.845c-12.345 0-24.184 4.904-32.913 13.633s-13.633 20.568-13.633 32.913zM318.062 773.818c0 9.206 2.73 18.205 7.844 25.859s12.384 13.62 20.889 17.143c8.505 3.523 17.864 4.445 26.893 2.649s17.322-6.229 23.832-12.739c6.51-6.509 10.943-14.803 12.739-23.832s0.874-18.388-2.649-26.893c-3.523-8.505-9.489-15.774-17.143-20.889s-16.654-7.845-25.859-7.845c-12.344 0-24.183 4.904-32.913 13.633s-13.633 20.568-13.633 32.913zM457.698 773.818c0 9.206 2.731 18.205 7.846 25.859 5.111 7.654 12.382 13.62 20.885 17.143 8.508 3.523 17.865 4.445 26.893 2.649 9.033-1.796 17.323-6.229 23.834-12.739s10.944-14.803 12.74-23.832c1.796-9.029 0.87-18.388-2.65-26.893-3.524-8.505-9.489-15.774-17.143-20.889s-16.653-7.845-25.86-7.845c-12.343 0-24.183 4.904-32.913 13.633s-13.632 20.568-13.632 32.913z" />
<glyph unicode="&#xe902;" glyph-name="brush" d="M810.667 960h-597.333c-56.559-0.068-110.781-22.566-150.775-62.559s-62.491-94.216-62.559-150.775v-213.333c0.102-79.181 31.601-155.089 87.59-211.076 55.989-55.991 131.897-87.488 211.077-87.59h85.333v-170.667c0-33.946 13.486-66.505 37.49-90.509s56.564-37.491 90.51-37.491c33.946 0 66.505 13.487 90.509 37.491s37.491 56.563 37.491 90.509v170.667h85.333c79.181 0.102 155.089 31.599 211.076 87.59 55.991 55.987 87.488 131.895 87.59 211.076v213.333c-0.068 56.559-22.566 110.781-62.558 150.775-39.996 39.993-94.217 62.491-150.775 62.559v0zM85.333 746.667c0 33.948 13.486 66.505 37.49 90.51s56.562 37.49 90.51 37.49h213.333v-42.667c0-11.316 4.497-22.168 12.497-30.17s18.854-12.497 30.17-12.497c11.315 0 22.17 4.495 30.17 12.497s12.497 18.854 12.497 30.17v42.667h85.333v-128c0-11.316 4.497-22.168 12.497-30.17s18.854-12.497 30.17-12.497c11.315 0 22.17 4.495 30.17 12.497s12.497 18.854 12.497 30.17v128h85.333v-213.333c0-11.316 4.497-22.168 12.497-30.17s18.854-12.497 30.17-12.497c11.315 0 22.17 4.495 30.17 12.497s12.497 18.854 12.497 30.17v205.483c24.87-8.793 46.417-25.055 61.692-46.562s23.531-47.208 23.642-73.587v-213.333h-853.333v213.333zM725.333 320h-128c-11.315 0-22.17-4.497-30.17-12.497s-12.497-18.854-12.497-30.17v-213.333c0-11.315-4.497-22.17-12.497-30.17s-18.854-12.497-30.17-12.497c-11.315 0-22.17 4.497-30.17 12.497s-12.497 18.854-12.497 30.17v213.333c0 11.315-4.497 22.17-12.497 30.17s-18.854 12.497-30.17 12.497h-128c-41.462 0.055-82.010 12.19-116.684 34.923s-61.973 55.078-78.558 93.077h817.152c-16.585-37.999-43.883-70.345-78.558-93.077s-75.221-34.867-116.685-34.923z" />
<glyph unicode="&#xe903;" glyph-name="edit" d="M795.989 920.32l-520.192-520.192c-19.868-19.763-35.619-43.268-46.341-69.158-10.722-25.886-16.202-53.645-16.123-81.668v-57.301c0-11.315 4.495-22.17 12.497-30.17 8.002-8.004 18.854-12.497 30.17-12.497h57.301c28.022-0.081 55.781 5.402 81.67 16.124s49.397 26.47 69.156 46.34l520.192 520.192c24.934 24.995 38.938 58.86 38.938 94.165s-14.003 69.17-38.938 94.165c-25.357 24.239-59.085 37.766-94.165 37.766s-68.809-13.527-94.165-37.766zM923.989 792.32l-520.192-520.192c-24.059-23.91-56.576-37.372-90.496-37.461h-14.635v14.635c0.089 33.92 13.549 66.436 37.461 90.496l520.192 520.192c9.114 8.706 21.231 13.564 33.835 13.564s24.721-4.858 33.835-13.564c8.956-8.982 13.986-21.149 13.986-33.835s-5.030-24.853-13.986-33.835zM981.333 576.896c-11.315 0-22.17-4.495-30.17-12.497s-12.497-18.854-12.497-30.17v-214.229h-170.667c-33.946 0-66.505-13.487-90.509-37.491s-37.491-56.563-37.491-90.509v-170.667h-426.667c-33.948 0-66.505 13.487-90.51 37.491s-37.49 56.563-37.49 90.509v597.333c0 33.948 13.486 66.505 37.49 90.51s56.562 37.49 90.51 37.49h385.792c11.315 0 22.17 4.495 30.17 12.497s12.497 18.854 12.497 30.17c0 11.316-4.497 22.168-12.497 30.17s-18.854 12.497-30.17 12.497h-385.792c-56.559-0.068-110.781-22.566-150.775-62.559s-62.491-94.216-62.559-150.775v-597.333c0.068-56.559 22.566-110.78 62.559-150.775 39.993-39.991 94.216-62.49 150.775-62.558h483.968c28.028-0.081 55.795 5.397 81.69 16.119 25.899 10.722 49.412 26.475 69.18 46.345l113.323 113.408c19.87 19.759 35.627 43.264 46.357 69.154s16.218 53.649 16.149 81.673v271.531c0 11.316-4.497 22.168-12.497 30.17s-18.854 12.497-30.17 12.497zM787.84 58.795c-17.152-17.109-38.839-28.954-62.507-34.133v167.339c0 11.315 4.497 22.17 12.497 30.17s18.854 12.497 30.17 12.497h167.467c-5.278-23.616-17.109-45.265-34.133-62.464l-113.493-113.408z" />
<glyph unicode="&#xe904;" glyph-name="fingerprint" horiz-adv-x="983" d="M264.809 47.202c-8.953 0.004-17.659 2.941-24.785 8.36-7.126 5.423-12.28 13.029-14.673 21.656s-1.892 17.801 1.424 26.12c3.317 8.315 9.266 15.315 16.939 19.927 145.121 87.163 145.121 274.35 145.121 386.171 0 32.592 12.946 63.847 35.989 86.891 23.044 23.045 54.301 35.991 86.893 35.991 32.588 0 63.844-12.946 86.888-35.991s35.992-54.299 35.992-86.891c0-10.863-4.317-21.279-11.997-28.963-7.684-7.68-18.1-11.997-28.963-11.997-10.867 0-21.283 4.317-28.963 11.997-7.684 7.684-11.997 18.1-11.997 28.963 0 10.867-4.317 21.283-11.997 28.967-7.684 7.68-18.1 11.993-28.963 11.993-10.867 0-21.283-4.313-28.963-11.993-7.684-7.684-11.997-18.1-11.997-28.967 0-120.709 0-345.457-184.895-456.417-6.362-3.805-13.638-5.816-21.053-5.816zM468.095-11.002c93.471 94.208 148.070 226.673 162.243 394.076 0.475 5.374-0.111 10.785-1.729 15.925-1.618 5.145-4.235 9.916-7.705 14.045-3.465 4.129-7.713 7.533-12.497 10.015-4.788 2.486-10.015 4.002-15.385 4.456-5.378 0.553-10.809 0.016-15.97-1.573-5.165-1.593-9.953-4.207-14.086-7.688-4.133-3.486-7.52-7.762-9.961-12.579-2.445-4.821-3.895-10.080-4.26-15.475-12.739-149.791-58.122-262.144-138.772-343.286-7.66-7.705-11.944-18.141-11.909-29.004 0.034-10.867 4.384-21.275 12.093-28.934 7.705-7.655 18.141-11.94 29.004-11.907 10.867 0.037 21.275 4.387 28.934 12.091v-0.164zM681.087-3.383c24.842 41.284 45.535 84.931 61.768 130.294 3.391 10.15 2.679 21.221-1.982 30.847-4.665 9.63-12.911 17.052-22.974 20.681-10.064 3.625-21.152 3.17-30.884-1.266-9.736-4.44-17.347-12.513-21.205-22.491-14.422-40.223-32.78-78.926-54.804-115.548-2.793-4.6-4.653-9.708-5.468-15.024-0.819-5.321-0.582-10.752 0.696-15.978 1.282-5.226 3.58-10.154 6.762-14.492 3.183-4.342 7.188-8.012 11.792-10.805 9.29-5.636 20.443-7.352 31.003-4.768 5.226 1.282 10.154 3.58 14.492 6.762 4.342 3.183 8.012 7.188 10.805 11.788zM777.957 255.853c15.172 83.649 22.032 168.587 20.48 253.583-0.041 58.030-17.687 114.681-50.606 162.467s-79.565 84.46-133.767 105.174c-54.206 20.713-113.422 24.492-169.82 10.837s-107.326-44.102-146.053-87.316c-3.772-3.973-6.708-8.663-8.635-13.791s-2.806-10.591-2.585-16.065c0.222-5.474 1.539-10.848 3.874-15.804s5.641-9.393 9.721-13.048c4.080-3.655 8.852-6.455 14.034-8.234s10.667-2.5 16.132-2.12c5.465 0.379 10.799 1.851 15.685 4.328s9.226 5.909 12.763 10.093c27.659 30.872 64.034 52.625 104.323 62.383 40.284 9.758 82.584 7.063 121.303-7.731s72.040-40.988 95.56-75.121c23.515-34.134 36.123-74.6 36.151-116.053 1.507-79.741-4.829-159.437-18.924-237.937-2.068-10.654 0.176-21.697 6.242-30.695 6.070-9.003 15.462-15.229 26.116-17.31 2.601-0.52 5.251-0.778 7.905-0.778 9.486 0.025 18.67 3.342 25.985 9.388 7.311 6.042 12.3 14.438 14.115 23.749zM306.916 509.436c-0.012 11.436 0.933 22.847 2.826 34.12 1.223 5.431 1.328 11.049 0.307 16.519s-3.144 10.674-6.243 15.295c-3.098 4.622-7.105 8.564-11.777 11.585s-9.91 5.060-15.395 5.99c-5.485 0.931-11.103 0.734-16.51-0.578s-10.49-3.712-14.939-7.053c-4.449-3.341-8.17-7.554-10.937-12.381s-4.522-10.167-5.157-15.694c-2.704-15.792-4.074-31.779-4.096-47.802 0-190.259-55.132-286.72-163.84-286.72-10.863 0-21.282-4.313-28.963-11.993-7.681-7.684-11.997-18.1-11.997-28.967 0-10.863 4.315-21.279 11.997-28.963 7.682-7.68 18.1-11.997 28.963-11.997 158.474 0 245.76 131.072 245.76 368.64zM868.069 0.958c67.404 160.805 99.533 334.201 94.208 508.477 0.188 68.040-15.225 135.215-45.056 196.364-2.355 4.841-5.64 9.171-9.667 12.743s-8.716 6.316-13.804 8.075c-5.087 1.759-10.469 2.499-15.843 2.177s-10.633-1.698-15.471-4.051c-4.841-2.353-9.171-5.637-12.747-9.664-3.572-4.027-6.312-8.718-8.073-13.805-1.757-5.087-2.499-10.471-2.179-15.844 0.324-5.373 1.7-10.63 4.055-15.471 24.371-49.995 36.983-104.903 36.864-160.524 5.153-162.558-24.437-324.35-86.794-474.563-2.22-4.903-3.453-10.199-3.625-15.577-0.172-5.382 0.717-10.744 2.621-15.782 1.901-5.038 4.776-9.65 8.462-13.574s8.11-7.082 13.021-9.298c5.304-2.437 11.076-3.695 16.916-3.686 7.832 0.037 15.491 2.314 22.069 6.57 6.578 4.252 11.796 10.306 15.041 17.433zM143.076 386.556v122.88c0.108 97.738 38.982 191.44 108.092 260.55s162.811 107.983 260.55 108.092c79.802 0.266 157.495-25.632 221.184-73.728 8.688-6.518 19.612-9.317 30.368-7.78 10.752 1.536 20.455 7.282 26.976 15.972 6.517 8.69 9.314 19.615 7.778 30.369s-7.283 20.457-15.97 26.975c-77.853 58.76-172.802 90.41-270.336 90.112-119.455-0.141-233.974-47.656-318.44-132.122s-131.98-198.986-132.121-318.44v-122.88c0-10.863 4.315-21.279 11.997-28.963 7.682-7.68 18.1-11.997 28.963-11.997s21.282 4.317 28.963 11.997c7.682 7.684 11.997 18.1 11.997 28.963z" />
<glyph unicode="&#xe905;" horiz-adv-x="1000" d="M717.985 884.109c72.146-25.194 158.034-45.807 171.775-97.34 13.743-52.679-44.661-136.276-56.113-215.293-10.308-77.872 26.338-148.873 6.871-190.099-20.614-41.226-97.341-51.534-159.179-105.356-62.985-54.969-109.937-153.453-179.793-193.534-71.001-41.228-164.906-22.904-209.568 42.371-44.661 64.13-40.081 175.212-54.969 256.519s-49.242 132.839-62.984 192.389-8.016 127.115 17.177 191.244c24.049 64.13 67.566 124.825 125.97 159.18 59.548 34.355 132.839 42.372 200.405 30.92 67.566-12.597 127.115-44.662 200.407-71.001z" />
<glyph unicode="&#xe906;" horiz-adv-x="1000" d="M350.984 809.962c0 0 12.993-1.025 14.11-18.999s1.211-70.129-23.19-73.343c-24.402-3.213-6.845 85.683-6.845 85.683l15.925 6.659z" />
<glyph unicode="&#xe907;" horiz-adv-x="1000" d="M266.233 793.85c0 0-9.873-27.522 9.825-32.55 19.744-5.030 16.067 34.878 16.067 34.878l-25.892-2.328z" />
<glyph unicode="&#xe908;" horiz-adv-x="1000" d="M378.46 620.994l61.049-86.056-3.399 8.056 28.173-126.291 31.386 5.869-19.419 127.919c-0.418 2.795-1.49 5.309-2.98 7.451l-0.418 0.606-61.049 86.056-33.342-23.609z" />
<glyph unicode="&#xe909;" horiz-adv-x="1000" d="M487.659 377.959c16.067 4.797 25.147 21.746 20.35 37.767-4.795 16.065-21.746 25.145-37.765 20.35-16.067-4.797-25.147-21.748-20.35-37.767 4.795-16.019 21.7-25.147 37.765-20.35z" />
<glyph unicode="&#xe90a;" horiz-adv-x="1000" d="M246.301 623.926l-38.604-118 20.722 14.063-125.731 3.4-2.002-31.9 125.172-12.339c9.313-0.932 17.696 4.843 20.491 13.365l0.231 0.697 38.606 118.002-38.884 12.712z" />
<glyph unicode="&#xe90b;" horiz-adv-x="1000" d="M253.146 20.37l-18.905-52.108-27.661 24.866 17.648 41.771 28.918-14.529z" />
<glyph unicode="&#xe90c;" horiz-adv-x="1000" d="M245.184-19.678c0 2.562-2.187 4.237-4.377 3.307-4.285-1.817-11.409-3.4-19.838 0.371-8.801 3.958-10.431 10.433-10.431 14.716 0 2.235-1.584 3.912-3.632 3.632l-64.403-9.266c-3.912-0.56-7.59-2.841-10.198-6.333-2.468-3.261-1.304-8.056 2.142-9.082l96.162-29.243c3.771-1.165 7.869 1.582 8.987 5.96l5.448 21.513c0.094 0.373 0.139 0.745 0.139 1.072v3.353z" />
<glyph unicode="&#xe90d;" horiz-adv-x="1000" d="M504.61 55.76l20.955-41.026-24.402-20.862-26.356 49.222 29.802 12.666z" />
<glyph unicode="&#xe90e;" horiz-adv-x="1000" d="M529.942 23.769c-1.956 1.63-4.656 1.072-5.355-1.211-1.397-4.47-4.749-10.895-13.132-14.901-8.708-4.144-14.714-1.163-17.975 1.584-1.723 1.444-4.050 1.305-5.122-0.418l-34.645-55.090c-2.096-3.353-2.749-7.59-1.771-11.827 0.885-4.004 5.263-6.194 8.337-4.237l84.564 54.389c3.307 2.143 3.912 7.032 1.305 10.712l-12.899 18.067c-0.233 0.281-0.466 0.56-0.745 0.793l-2.562 2.142z" />
<glyph unicode="&#xe90f;" horiz-adv-x="1000" d="M274.522 440.592l82.704-229.437 117.070-193.998 52.2 25.798-104.077 193.393-57.091 193.441-90.806 10.803z" />
<glyph unicode="&#xe910;" horiz-adv-x="1000" d="M402.302 437.193c0 0 15.646-29.571-8.662-76.837l-75.484-144.032-57.511-218.307-57.138 19.929 54.67 220.775 59.093 172.252-42.795 29.571 127.827-3.353z" />
<glyph unicode="&#xe911;" horiz-adv-x="1000" d="M331.101 692.101l64.402-13.226c7.59-1.536 14.297-5.913 18.814-12.2l40.978-57.091-54.762-35.811 19.744-156.327c0 0-22.306-68.267-158.375-13.83 0 0 11.736 129.549 3.865 213.93l4.006 55.555 61.328 18.999z" />
<glyph unicode="&#xe912;" horiz-adv-x="1000" d="M269.725 673.148l-10.71-3.911c-8.849-3.213-15.74-10.339-18.674-19.326l-22.306-68.035 65.567-12.106-13.877 103.378z" />
<glyph unicode="&#xe913;" horiz-adv-x="1000" d="M60.871 516.542c0-16.764 13.598-30.36 30.362-30.36s30.315 13.596 30.315 30.36c0 16.766-13.598 30.316-30.315 30.316-16.764 0-30.362-13.551-30.362-30.316z" />
<glyph unicode="&#xe914;" horiz-adv-x="1000" d="M312.893 672.403l7.311-4.052c14.204 1.165 27.567 4.191 26.404 18.395l-3.4 41.63-51.455-4.237 3.399-41.63c1.163-14.204 3.54-11.27 17.742-10.106z" />
<glyph unicode="&#xe915;" horiz-adv-x="1000" d="M343.906 723.348c0 0-7.078-30.828-32.97-29.757-22.631 0.978-20.489 34.785-20.489 34.785l53.459-5.028z" />
<glyph unicode="&#xe916;" horiz-adv-x="1000" d="M315.361 704.534l4.377 0.466c21.888 2.375 37.719 22.027 35.392 43.959l-2.701 24.961c-2.375 21.886-22.027 37.719-43.96 35.39l-4.377-0.466c-21.886-2.375-37.719-22.026-35.39-43.959l2.701-24.96c2.375-21.888 22.025-37.721 43.959-35.392z" />
<glyph unicode="&#xe917;" horiz-adv-x="1000" d="M312.893 672.403l32.691 19.744c13.969 5.821 22.864-7.684 22.864-7.684l-38.93-38.185-16.624 26.125z" />
<glyph unicode="&#xe918;" horiz-adv-x="1000" d="M312.893 672.403l-15.832-24.493-15.833 28.824c0 0 6.239 9.825 14.762 7.544l16.903-11.875z" />
<glyph unicode="&#xe919;" horiz-adv-x="1000" d="M227.581 515.285h-197.863c-3.306 0-5.96 2.655-5.96 5.96 0 3.307 2.654 5.96 5.96 5.96h197.863c3.307 0 5.96-2.654 5.96-5.96 0-3.259-2.654-5.96-5.96-5.96z" />
<glyph unicode="&#xe91a;" horiz-adv-x="1000" d="M23.757 522.783l-23.656 114.927c-0.605 2.841 1.583 5.542 4.517 5.542h120.376c2.189 0 4.098-1.536 4.517-3.725l23.33-116.791-129.084 0.048z" />
<glyph unicode="&#xe91b;" horiz-adv-x="1000" d="M13.466 634.496l22.073-104.263h109.153l-22.073 104.263h-109.154z" />
<glyph unicode="&#xe91c;" horiz-adv-x="1000" d="M349.821 754.919h-13.365l-2.608 14.67c0 0-13.969 7.497-11.27 21.979 0 0-58.814-21.095-67.988 2.375-12.106 30.967 31.806 38.651 67.988 37.766 36.183-0.838 33.575-47.033 33.575-47.033l-6.333-29.757z" />
<glyph unicode="&#xe91d;" horiz-adv-x="1000" d="M341.998 757.854c0.839-7.823 7.869-13.459 15.692-12.62s13.459 7.871 12.62 15.694c-0.839 7.823-7.869 13.457-15.692 12.62-7.823-0.839-13.459-7.871-12.62-15.694z" />
<glyph unicode="&#xe91e;" horiz-adv-x="1000" d="M580.245 314.441h143.101v-227.062h-143.101v227.062z" />
<glyph unicode="&#xe91f;" horiz-adv-x="1000" d="M722.786 314.441h143.101v-227.062h-143.101v227.062z" />
<glyph unicode="&#xe920;" horiz-adv-x="1000" d="M797.76 589.793l6.1-122.052 28.685-89.503h-51.642l-26.824 77.116-8.381 87.638 52.063 46.801z" />
<glyph unicode="&#xe921;" horiz-adv-x="1000" d="M799.203 163.19l-10.385-48.383 34.88-4.144 9.919 47.638-34.414 4.889z" />
<glyph unicode="&#xe922;" horiz-adv-x="1000" d="M786.724 119.184c0.885 2.608 3.678 3.54 5.588 1.863 3.725-3.305 10.431-7.357 20.35-6.379 10.291 1.024 14.156 7.078 15.646 11.455 0.791 2.283 2.98 3.446 4.936 2.468l62.446-31.386c3.773-1.909 6.753-5.448 8.243-9.873 1.397-4.144-1.398-8.614-5.309-8.52l-107.896 2.98c-4.237 0.094-7.498 4.283-7.126 9.126l1.771 23.75c0.046 0.373 0.092 0.791 0.233 1.163l1.118 3.353z" />
<glyph unicode="&#xe923;" horiz-adv-x="1000" d="M799.808 397.143h80.98c0 0 49.315 2.749 52.248-37.719 2.934-40.466-72.319-156.232-84.1-218.073l-67.709 5.588 48.756 168.154-121.26-0.699c-8.988-0.046-17.929 1.257-26.404 4.191-23.611 8.196-59.653 19.931-40.002 84.939l157.49-6.381z" />
<glyph unicode="&#xe924;" horiz-adv-x="1000" d="M737.315 163.005l-16.485-57.838 34.88-4.144 16.019 57.091-34.414 4.891z" />
<glyph unicode="&#xe925;" horiz-adv-x="1000" d="M718.734 109.546c0.886 2.608 3.679 3.538 5.588 1.863 3.725-3.307 10.431-7.359 20.35-6.381 10.291 1.024 14.158 7.078 15.648 11.455 0.791 2.283 2.98 3.446 4.936 2.468l62.446-31.386c3.771-1.909 6.751-5.448 8.242-9.871 1.398-4.146-1.397-8.616-5.307-8.522l-109.759 2.98c-4.239 0.094-7.498 4.285-7.126 9.128l3.679 23.748c0.046 0.373 0.094 0.791 0.233 1.163l1.070 3.355z" />
<glyph unicode="&#xe926;" horiz-adv-x="1000" d="M703.042 637.756c-1.817-1.769-83.076-22.491-83.076-22.491l17.369-46.148 88.849 6.706-23.143 61.934z" />
<glyph unicode="&#xe927;" horiz-adv-x="1000" d="M736.57 626.627c0 0 52.947-19.326 61.19-36.835-2.841-24.728-11.55-48.524-25.892-68.874-17.603-24.96-39.351-67.848-35.345-123.776h-153.066c0 0 8.242 157.351 53.551 217.749l99.561 11.736z" />
<glyph unicode="&#xe928;" horiz-adv-x="1000" d="M719.2 601.666c-15.041 3.074-24.726 17.744-21.654 32.785l8.988 44.006 54.437-11.13-8.988-44.006c-3.072-15.041-17.742-24.726-32.783-21.654z" />
<glyph unicode="&#xe929;" horiz-adv-x="1000" d="M702.809 663.090c0 0 5.727-35.671 33.482-37.813 24.308-1.863 21.979 33.295 21.979 33.295l-55.461 4.518z" />
<glyph unicode="&#xe92a;" horiz-adv-x="1000" d="M734.102 644.836l-4.795 1.118c-24.077 5.588-39.070 29.615-33.482 53.644l6.333 27.428c5.588 24.075 29.615 39.070 53.644 33.482l4.797-1.118c24.075-5.588 39.070-29.617 33.482-53.644l-6.333-27.428c-5.588-24.077-29.617-39.070-53.646-33.482z" />
<glyph unicode="&#xe92b;" horiz-adv-x="1000" d="M710.911 688.189c1.118-1.909 2.189-4.797 2.562-9.174 0.418-5.542 3.213-10.803 7.871-13.877 13.363-8.847 23.561 13.552 43.307 9.594 0 0 7.73-1.165 9.266-9.779 1.538-8.568 12.295 6.427 14.67 16.67 2.375 10.246 3.584-50.712-45.030-45.542 0 0-24.541 0.791-41.074 25.798-1.815 2.747-2.887 5.96-2.98 9.267-0.139 4.889 0.56 12.294 5.215 17.603 1.631 1.954 4.891 1.675 6.194-0.56z" />
<glyph unicode="&#xe92c;" horiz-adv-x="1000" d="M710.865 702.020c0 0 21.001 6.939 17.463 37.626 0 0 52.154-49.361 90.806-13.132 0 0-17.276 4.61-24.402 16.439-12.993 21.559-50.339 51.27-80.235 16.903 0 0-36.369 5.634-25.938-50.385l22.306-7.451z" />
<glyph unicode="&#xe92d;" horiz-adv-x="1000" d="M710.865 702.020c-2.002-8.568-10.57-13.925-19.139-11.969-8.616 2.002-13.925 10.57-11.969 19.139 2.002 8.57 10.57 13.925 19.14 11.969 8.614-2.002 13.969-10.57 11.967-19.139z" />
<glyph unicode="&#xe92e;" horiz-adv-x="1000" d="M737.408 603.389l-22.491-0.418 15.74-32.597 16.997 31.247-10.246 1.769z" />
<glyph unicode="&#xe92f;" horiz-adv-x="1000" d="M695.637 636.313l28.966-33.809-18.86-21.653-34.693 47.684c0 0 8.895 14.296 24.587 7.777z" />
<glyph unicode="&#xe930;" horiz-adv-x="1000" d="M737.408 603.389l16.67-18.812 11.736 29.336c0 0-3.074 13.178-12.666 10.664l-15.74-21.188z" />
<glyph unicode="&#xe931;" horiz-adv-x="1000" d="M731.263 580.898c0 0 21.746-56.718 16.344-137.187l-21.42-19.559-25.007 24.075 26.962 136.35 3.122-3.679z" />
<glyph unicode="&#xe932;" horiz-adv-x="1000" d="M690.609 446.225l46.566-15.32 3.074-27.336-61.748 18.441 12.108 24.214z" />
<glyph unicode="&#xe933;" horiz-adv-x="1000" d="M730.237 412.837c0-15.973 12.947-28.966 28.966-28.966 15.971 0 28.964 12.947 28.964 28.966 0 15.973-12.945 28.964-28.964 28.964-15.973 0-28.966-12.945-28.966-28.964z" />
<glyph unicode="&#xe934;" horiz-adv-x="1000" d="M736.57 397.143h80.935c0 0 49.313 2.749 52.248-37.719 2.934-40.466-77.861-163.682-89.642-225.478l-67.709 5.588 54.298 175.605-121.261-0.697c-8.987-0.048-17.927 1.257-26.404 4.19-23.609 8.196-59.651 19.931-40 84.939l157.536-6.427z" />
<glyph unicode="&#xe935;" horiz-adv-x="1000" d="M980.722 540.244h-139.936c-4.61 0-8.568-3.213-9.544-7.73l-26.358-123.59c-1.303-6.052 3.353-11.782 9.546-11.782h142.263c4.658 0 8.662 3.307 9.546 7.871l24.029 123.588c1.209 6.054-3.4 11.642-9.546 11.642z" />
<glyph unicode="&#xe936;" horiz-adv-x="1000" d="M988.778 540.244h-139.888c-4.61 0-8.568-3.213-9.546-7.73l-26.358-123.59c-1.303-6.052 3.307-11.782 9.546-11.782h142.217c4.658 0 8.662 3.307 9.546 7.871l24.029 123.588c1.209 6.054-3.4 11.642-9.546 11.642z" />
<glyph unicode="&#xe937;" horiz-adv-x="1000" d="M808.703 407.715h-95.603c-2.934 0-5.263-2.375-5.263-5.263 0-2.933 2.376-5.261 5.263-5.261h97.465l-1.863 10.524z" />
<glyph unicode="&#xe938;" horiz-adv-x="1000" d="M902.162 471.93c0-8.429 6.799-15.226 15.228-15.226s15.228 6.845 15.228 15.226c0 8.429-6.845 15.228-15.228 15.228-8.429 0-15.228-6.799-15.228-15.228z" />
<glyph unicode="&#xe939;" horiz-adv-x="1000" d="M653.354 571.306l-51.13-82.564 122.379-43.68-16.764-36.229c0 0-104.637 11.734-155.209 50.712-4.656 3.584-6.984 9.405-6.194 15.226 2.375 18.627 12.527 63.844 55.788 128.106 8.801 13.086 26.31 17.045 39.954 9.128 14.204-8.196 19.186-26.358 11.176-40.699z" />
<glyph unicode="&#xe93a;" glyph-name="logo-company" d="M1018.88 448c0-279.942-226.938-506.88-506.88-506.88s-506.88 226.938-506.88 506.88c0 279.942 226.938 506.88 506.88 506.88s506.88-226.938 506.88-506.88z" />
<glyph unicode="&#xe93b;" glyph-name="Union" d="M985.87 958.854l0.3 0.080c22.153 5.976 42.824-14.3 36.758-36.774l-0.072-0.268c-0.051-0.199-0.106-0.399-0.164-0.598l-0.061-0.224-299.145-963.952c-3.891-12.544-15.486-21.098-28.617-21.122h-0.048c-13.114 0-24.713 8.513-28.641 21.026l-116.705 371.692-188.355-70.205c-10.991-4.099-23.389-1.42-31.711 6.902-8.308 8.308-11.006 20.698-6.902 31.71l70.21 188.358-371.692 116.698c-12.532 3.936-21.048 15.555-21.026 28.689s8.578 24.726 21.12 28.62l964.166 299.208c0.195 0.058 0.389 0.109 0.584 0.16v0zM839.226 850.516l-708.474-219.866 295.365-92.739 413.109 312.605zM456.967 485.973l-55.265-148.268 148.265 55.265 289.273 382.271-382.273-289.268zM601.907 362.124l92.74-295.369 219.863 708.475-312.603-413.106zM196.050 344.286c11.724 11.721 30.73 11.721 42.45 0 11.722-11.721 11.722-30.727 0-42.452l-180.098-180.098c-11.724-11.721-30.73-11.721-42.45 0-11.722 11.725-11.722 30.73 0 42.452l180.098 180.098zM408.282 174.507c-11.721 11.725-30.727 11.725-42.448 0l-180.1-180.098c-11.722-11.721-11.722-30.727 0-42.452 11.72-11.721 30.728-11.721 42.45 0l180.098 180.098c11.721 11.721 11.721 30.727 0 42.452zM220.909 199.363c11.724 11.721 30.73 11.721 42.45 0 11.722-11.721 11.722-30.727 0-42.452l-212.116-212.115c-11.722-11.721-30.73-11.721-42.45 0-11.722 11.725-11.722 30.727 0 42.448l212.116 212.118z" />
<glyph unicode="&#xe93c;" glyph-name="school" d="M810.667 704h-199.637c-17.007 12.121-36.122 20.976-56.363 26.112v16.555l150.613 70.485c6.174 3.827 11.268 9.166 14.801 15.513 3.537 6.347 5.389 13.49 5.389 20.754s-1.852 14.408-5.389 20.754c-3.533 6.347-8.627 11.686-14.801 15.512l-136.533 64c-10.658 4.981-22.404 7.189-34.146 6.417s-23.1-4.497-33.015-10.83c-9.916-6.333-18.074-15.069-23.71-25.397-5.641-10.328-8.576-21.912-8.542-33.679v-160.085c-20.233-5.129-39.33-13.984-56.32-26.112h-199.68c-56.559-0.067-110.781-22.566-150.775-62.559s-62.491-94.216-62.559-150.774v-426.667c0-33.95 13.486-66.505 37.49-90.509s56.562-37.491 90.51-37.491h768c33.946 0 66.505 13.487 90.509 37.491s37.491 56.559 37.491 90.509v426.667c-0.068 56.559-22.566 110.781-62.558 150.774-39.996 39.993-94.217 62.491-150.775 62.559v0zM930.816 533.333h-92.117c-33.929 0.086-66.453 13.565-90.496 37.504l-47.872 47.829h110.336c26.381-0.109 52.079-8.366 73.587-23.641s37.769-36.822 46.562-61.692v0zM213.333 618.666h110.336l-47.872-47.829c-24.044-23.939-56.567-37.417-90.496-37.504h-92.117c8.793 24.87 25.055 46.417 46.562 61.692s47.208 23.532 73.587 23.641v0zM554.667 21.333h-85.333v128c0 11.315 4.497 22.17 12.497 30.17s18.854 12.497 30.17 12.497c11.315 0 22.17-4.497 30.17-12.497s12.497-18.854 12.497-30.17v-128zM896 21.333h-256v128c0 33.946-13.487 66.505-37.491 90.509s-56.563 37.491-90.509 37.491c-33.946 0-66.505-13.487-90.51-37.491s-37.49-56.563-37.49-90.509v-128h-256c-11.316 0-22.168 4.497-30.17 12.497s-12.497 18.854-12.497 30.17v384h99.968c28.024-0.068 55.784 5.419 81.673 16.149s49.393 26.483 69.154 46.357l115.541 115.498c16.004 15.998 37.705 24.985 60.331 24.985s44.326-8.987 60.331-24.985l115.541-115.498c19.759-19.874 43.264-35.627 69.154-46.357s53.649-16.218 81.673-16.149h99.968v-384c0-11.315-4.497-22.17-12.497-30.17s-18.854-12.497-30.17-12.497zM298.667 320c0-11.315-4.495-22.17-12.497-30.17s-18.854-12.497-30.17-12.497h-42.667c-11.316 0-22.168 4.497-30.17 12.497s-12.497 18.854-12.497 30.17c0 11.315 4.495 22.17 12.497 30.17s18.854 12.497 30.17 12.497h42.667c11.316 0 22.168-4.497 30.17-12.497s12.497-18.854 12.497-30.17zM298.667 149.333c0-11.315-4.495-22.17-12.497-30.17s-18.854-12.497-30.17-12.497h-42.667c-11.316 0-22.168 4.497-30.17 12.497s-12.497 18.854-12.497 30.17c0 11.315 4.495 22.17 12.497 30.17s18.854 12.497 30.17 12.497h42.667c11.316 0 22.168-4.497 30.17-12.497s12.497-18.854 12.497-30.17zM853.333 320c0-11.315-4.497-22.17-12.497-30.17s-18.854-12.497-30.17-12.497h-42.667c-11.315 0-22.17 4.497-30.17 12.497s-12.497 18.854-12.497 30.17c0 11.315 4.497 22.17 12.497 30.17s18.854 12.497 30.17 12.497h42.667c11.315 0 22.17-4.497 30.17-12.497s12.497-18.854 12.497-30.17zM853.333 149.333c0-11.315-4.497-22.17-12.497-30.17s-18.854-12.497-30.17-12.497h-42.667c-11.315 0-22.17 4.497-30.17 12.497s-12.497 18.854-12.497 30.17c0 11.315 4.497 22.17 12.497 30.17s18.854 12.497 30.17 12.497h42.667c11.315 0 22.17-4.497 30.17-12.497s12.497-18.854 12.497-30.17zM597.333 448c0-16.879-5.005-33.374-14.383-47.407-9.374-14.033-22.703-24.973-38.293-31.433-15.595-6.455-32.751-8.145-49.306-4.855-16.55 3.294-31.757 11.422-43.691 23.356s-20.062 27.14-23.356 43.691c-3.291 16.555-1.6 33.711 4.855 49.306 6.46 15.59 17.399 28.919 31.433 38.293 14.033 9.378 30.528 14.383 47.407 14.383 22.63 0 44.335-8.99 60.339-24.994s24.994-37.709 24.994-60.339z" />
<glyph unicode="&#xe93d;" glyph-name="Vector" horiz-adv-x="1069" d="M1019.548 605.829c-14.741 7.47-31.277 10.662-47.741 9.214-16.46-1.448-32.189-7.477-45.399-17.406l-81.608-60.594c-5.587 54.882-31.325 105.744-72.237 142.75s-94.092 57.528-149.259 57.597h-3.784l-183.519 183.474c-12.365 12.451-27.079 22.322-43.289 29.040s-33.594 10.149-51.141 10.094h-297.049c-11.808 0-23.132-4.691-31.482-13.040s-13.040-19.674-13.040-31.481c0-11.808 4.691-23.133 13.040-31.482s19.674-13.040 31.482-13.040h297.049c11.801-0.032 23.113-4.72 31.477-13.045l120.52-120.52h-270.959c-59.018-0.071-115.598-23.547-157.33-65.279s-65.208-98.312-65.279-157.33v-356.174c0.071-59.018 23.547-115.601 65.279-157.331s98.312-65.207 157.33-65.278h400.696c55.167 0.067 108.348 20.591 149.259 57.598s66.649 87.868 72.237 142.75l81.475-60.728c13.227-9.924 28.961-15.965 45.43-17.448 16.469-1.487 33.026 1.643 47.816 9.038s27.229 18.766 35.925 32.83c8.695 14.069 13.299 30.279 13.299 46.815v379.369c0.058 16.54-4.523 32.765-13.219 46.836s-21.157 25.422-35.978 32.769zM756.87 158.609c0-35.426-14.073-69.396-39.121-94.444s-59.022-39.121-94.444-39.121h-400.696c-35.424 0-69.396 14.073-94.445 39.121s-39.12 59.018-39.12 94.444v356.174c0 35.423 14.072 69.396 39.12 94.444s59.021 39.12 94.445 39.12h400.696c35.421 0 69.396-14.072 94.444-39.12s39.121-59.021 39.121-94.444v-356.174zM979.478 147.167l-133.565 99.551v179.957l133.565 99.55v-379.058z" />
</font>
</defs>
</svg>
